<?xml version="1.0" standalone="no"?>
<!DOCTYPE svg PUBLIC "-//W3C//DTD SVG 20010904//EN"
 "http://www.w3.org/TR/2001/REC-SVG-20010904/DTD/svg10.dtd">
<svg version="1.0" xmlns="http://www.w3.org/2000/svg"
 width="1920.000000pt" height="1080.000000pt" viewBox="0 0 1920.000000 1080.000000"
 preserveAspectRatio="xMidYMid meet">

<g transform="translate(0.000000,1080.000000) scale(0.100000,-0.100000)"
fill="#000000" stroke="none">
<path d="M0 5400 l0 -5400 9600 0 9600 0 0 5400 0 5400 -9600 0 -9600 0 0
-5400z m10046 3242 c85 -44 136 -127 135 -218 -2 -188 -209 -301 -370 -202
-26 16 -47 21 -88 19 -153 -7 -258 154 -188 289 45 86 158 134 240 101 13 -6
31 -3 50 7 70 35 157 37 221 4z m2111 -6312 c90 -29 161 -94 193 -179 70 -183
-36 -375 -226 -408 -27 -5 -1136 -8 -2464 -8 l-2415 1 -55 25 c-198 92 -245
342 -94 493 45 45 83 66 146 80 70 16 4863 12 4915 -4z"/>
<path d="M7223 2297 c-17 -7 -35 -15 -39 -19 -5 -6 -9 -383 -5 -466 1 -7 18
-20 38 -28 33 -14 299 -16 2464 -16 2751 0 2491 -8 2580 83 133 137 90 362
-84 439 -41 18 -119 19 -2482 19 -1845 0 -2448 -3 -2472 -12z"/>
</g>
</svg>
